<svg xmlns="http://www.w3.org/2000/svg" viewBox="0 0 800 600" role="img" aria-label="План склада 24 на 18 метров. Два паллетных ряда по четыре секции и среднегрузовой ряд из шести секций." fill="none" font-family="Segoe UI, Arial, sans-serif"><defs><pattern id="asset-grid" width="25" height="25" patternUnits="userSpaceOnUse"><path d="M25 0H0V25" stroke="#dfe5d8" stroke-width=".6"/></pattern></defs><rect width="800" height="600" fill="#f8f9f3"/><rect width="800" height="600" fill="url(#asset-grid)"/><g stroke="#8c9a80" stroke-width="1"><path d="M100 56V25M700 56V25M100 36H700M88 70H57M88 520H57M68 70V520"/><path d="m96 40 8-8m592 8 8-8M64 74l8-8m-8 458 8-8"/></g><g fill="#617153" font-size="13"><rect x="359" y="24" width="80" height="22" fill="#f8f9f3"/><text x="400" y="40" text-anchor="middle">24 000</text><text transform="translate(51 295) rotate(-90)" text-anchor="middle">18 000</text></g><path d="M460 520H100V70H700V520H610" stroke="#667b55" stroke-width="4"/><path d="M460 528H610M460 515v17m150-17v17" stroke="#94a08b"/><text x="535" y="551" fill="#728068" font-size="12" text-anchor="middle">Зона загрузки</text><g fill="#d9dfcf" stroke="#839474"><rect x="476" y="76" width="9" height="9"/><rect x="476" y="298" width="9" height="9"/></g><rect x="145" y="169" width="270" height="77" fill="#eff1e6"/><g stroke="#a3ad97" stroke-width="1"><path d="M430 167.5h30m-30 80h30m-12-80v80m-4-76 8-8m-8 84 8-8"/></g><rect x="426" y="194" width="46" height="24" rx="3" fill="#f8f9f3"/><text x="449" y="210" fill="#65764e" font-size="11" text-anchor="middle">3 200</text><g class="rack-row"><rect class="rack-fill" x="145" y="140" width="270.0" height="27.5" fill="#e8ecdf" stroke="#60734f" stroke-width="1.7"/><g class="rack-lines" stroke="#60734f" stroke-width="1.2"><path d="M212.5 140v27.5"/><path d="M280.0 140v27.5"/><path d="M347.5 140v27.5"/><path d="M145 153.75h270.0" opacity=".45"/></g><rect class="row-focus" x="140" y="135" width="280.0" height="37.5" rx="2" stroke="#EA7752" stroke-dasharray="4 3" opacity="0"/><text x="145" y="128" fill="#52624b" font-size="12">Ряд 01</text></g><g class="rack-row is-selected"><rect class="rack-fill" x="145" y="247.5" width="270.0" height="27.5" fill="#fae7dc" stroke="#EA7752" stroke-width="1.7"/><g class="rack-lines" stroke="#EA7752" stroke-width="1.2"><path d="M212.5 247.5v27.5"/><path d="M280.0 247.5v27.5"/><path d="M347.5 247.5v27.5"/><path d="M145 261.25h270.0" opacity=".45"/></g><rect class="row-focus" x="140" y="242.5" width="280.0" height="37.5" rx="2" stroke="#EA7752" stroke-dasharray="4 3" opacity="1"/><text x="145" y="235.5" fill="#52624b" font-size="12">Ряд 02</text></g><g class="rack-row"><rect class="rack-fill" x="145" y="395" width="270" height="15" fill="#e8ecdf" stroke="#60734f" stroke-width="1.7"/><g class="rack-lines" stroke="#60734f" stroke-width="1.2"><path d="M190 395v15"/><path d="M235 395v15"/><path d="M280 395v15"/><path d="M325 395v15"/><path d="M370 395v15"/><path d="M145 402.5h270" opacity=".45"/></g><rect class="row-focus" x="140" y="390" width="280" height="25" rx="2" stroke="#EA7752" stroke-dasharray="4 3" opacity="0"/><text x="145" y="383" fill="#52624b" font-size="12">Ряд 03</text></g><g fill="#708061" font-size="11"><text x="145" y="440">Среднегрузовые стеллажи</text><text x="577" y="120">Свободная зона</text><text x="114" y="497">Склад «Северный»</text></g></svg>